<svg xmlns="http://www.w3.org/2000/svg" viewBox="0 0 160 160">
  <defs>
    <linearGradient id="bg" x1="0" y1="0" x2="1" y2="1"><stop offset="0" stop-color="#fff4df"/><stop offset="1" stop-color="#ffb879"/></linearGradient>
    <linearGradient id="fur" x1="0" y1="0" x2="1" y2="1"><stop offset="0" stop-color="#fffefa"/><stop offset="1" stop-color="#f4e7d6"/></linearGradient>
  </defs>
  <rect x="8" y="8" width="144" height="144" rx="42" fill="url(#bg)"/>
  <ellipse cx="58" cy="44" rx="14" ry="34" fill="#fffefa" transform="rotate(-16 58 44)"/>
  <ellipse cx="100" cy="44" rx="14" ry="34" fill="#fffefa" transform="rotate(16 100 44)"/>
  <ellipse cx="58" cy="46" rx="7" ry="23" fill="#ffd7c2" transform="rotate(-16 58 46)" opacity=".8"/>
  <ellipse cx="100" cy="46" rx="7" ry="23" fill="#ffd7c2" transform="rotate(16 100 46)" opacity=".8"/>
  <ellipse cx="80" cy="88" rx="46" ry="41" fill="url(#fur)" stroke="#e9c9a9" stroke-width="3"/>
  <circle cx="63" cy="82" r="5" fill="#5b4637"/><circle cx="97" cy="82" r="5" fill="#5b4637"/>
  <circle cx="58" cy="94" r="8" fill="#ffd6c3" opacity=".7"/><circle cx="102" cy="94" r="8" fill="#ffd6c3" opacity=".7"/>
  <ellipse cx="80" cy="91" rx="5" ry="4" fill="#dc9d8d"/>
  <path d="M72 101c5 5 11 5 16 0" fill="none" stroke="#8b6953" stroke-width="4" stroke-linecap="round"/>
  <path d="M45 123c18 16 52 16 70 0" fill="none" stroke="#3ba871" stroke-width="13" stroke-linecap="round"/>
  <circle cx="127" cy="121" r="18" fill="#ff914d" stroke="#fff8ef" stroke-width="5"/>
  <path d="M119 121h16M127 113v16" stroke="#fff" stroke-width="5" stroke-linecap="round"/>
</svg>
